<svg id="Layer_1" data-name="Layer 1" xmlns="http://www.w3.org/2000/svg" xmlns:xlink="http://www.w3.org/1999/xlink" viewBox="0 0 283.46 283.46"><defs><style>.cls-1{fill:url(#linear-gradient);}.cls-2{fill:url(#linear-gradient-2);}.cls-3{fill:url(#linear-gradient-3);}.cls-4{fill:url(#linear-gradient-4);}.cls-5{fill:#e84429;}.cls-6{fill:#333;}</style><linearGradient id="linear-gradient" x1="59.61" y1="169.52" x2="226.8" y2="48.93" gradientUnits="userSpaceOnUse"><stop offset="0" stop-color="#f1841e"/><stop offset="0.32" stop-color="#ef751e"/><stop offset="0.94" stop-color="#e94f1e"/><stop offset="1" stop-color="#e84b1e"/></linearGradient><linearGradient id="linear-gradient-2" x1="110.54" y1="67.32" x2="160.23" y2="17.63" gradientUnits="userSpaceOnUse"><stop offset="0" stop-color="#f1841e"/><stop offset="0.22" stop-color="#ed6d1e"/><stop offset="0.47" stop-color="#ea5a1e"/><stop offset="0.72" stop-color="#e94f1e"/><stop offset="1" stop-color="#e84b1e"/></linearGradient><linearGradient id="linear-gradient-3" x1="105.53" y1="49.28" x2="168.49" y2="49.28" xlink:href="#linear-gradient-2"/><linearGradient id="linear-gradient-4" x1="122.1" y1="60.48" x2="154.97" y2="60.48" xlink:href="#linear-gradient-2"/></defs><title>KETABLAND</title><path class="cls-1" d="M236.08,24.23S179.11,37,141.25,79c0,0-34.93-30.1-102.59-32.14,0,0,13.58,33.14,22.07,136.18,0,0,18.15-4.09,47.19.34l12.19,35.29c33-34.8,66.2-12.86,74.35-8.67l4.82-37.68a212.6,212.6,0,0,1,45.53-9.62S230.05,75.76,236.08,24.23ZM127.2,196.45l-3.31-9.13,14.87,3.3ZM74.56,167.54C66.69,85.24,57.29,60.48,57.29,60.48c61,10,78.59,28.6,78.59,28.6l10,91.7C119,164.73,74.56,167.54,74.56,167.54ZM182,189.86l-12-2.25,12.83-7.81Zm-21.73-12.64L150,86.61C182.65,52,218.9,42.35,218.9,42.35c-1.71,32.7,7.78,109.32,7.78,109.32C198.34,153.72,160.23,177.22,160.23,177.22Z"/><path class="cls-2" d="M140.13,24.56c-20.53,0-38.7,8.89-49.81,22.54l11.25,4.26a54.76,54.76,0,0,1,38.56-16.27A55.57,55.57,0,0,1,171.49,45l9.17-6.94A66,66,0,0,0,140.13,24.56Z"/><path class="cls-3" d="M140.62,39.9c-13.49,0-25.58,5.78-35.09,13.81l11,4.94c7-4.61,15.09-8.22,24.09-8.22,6.59,0,13.07,2.36,18.67,4.93l9.2-7.09C160.39,43.54,150.71,39.9,140.62,39.9Z"/><path class="cls-4" d="M130.62,66.16a16.32,16.32,0,0,1,9.54-3.35A14.8,14.8,0,0,1,147.41,65l7.56-6.1a27.82,27.82,0,0,0-14.49-4.13,28.57,28.57,0,0,0-18.38,6.91Z"/><path class="cls-5" d="M73.87,259.24l-8.37-8.37v8.31H61.72v-22H65.5v8.34l8.3-8.31h5.35l-11,11,11,11.05Z"/><path class="cls-5" d="M84.72,240.93v5.34h8.22l.94,3.78H84.72v5.35h11v3.78H81v-22H95.77v3.78Z"/><path class="cls-5" d="M114.37,240.93h-6.45v18.25h-3.78V240.93H97.66v-3.78h16.71Z"/><path class="cls-5" d="M135,259.18h-4.15l-1.7-3.78-1.7-3.78L123,241.74l-4.47,9.88h5.73l1.7,3.78h-9.13l-1.7,3.78H111l9.94-22h4.16Z"/><path class="cls-5" d="M151.88,247.41a6.53,6.53,0,0,1,2,2.26,6.16,6.16,0,0,1,.76,3v.07a6.41,6.41,0,0,1-.5,2.5,6.21,6.21,0,0,1-1.39,2,6.6,6.6,0,0,1-2,1.37,6.16,6.16,0,0,1-2.49.51H142l1.51-3.78h4.75a2.56,2.56,0,0,0,1.87-.77,2.52,2.52,0,0,0,.77-1.87v-.07a2.63,2.63,0,0,0-2.64-2.64h-7.71v9.13h-3.78v-22h9.95a6.41,6.41,0,0,1,2.5.5,6.21,6.21,0,0,1,2,1.39,6.48,6.48,0,0,1,1.37,2,6.16,6.16,0,0,1,.51,2.49v.06a6.22,6.22,0,0,1-.33,2A6.74,6.74,0,0,1,151.88,247.41Zm-2.55-3.84a2.63,2.63,0,0,0-2.64-2.64h-6.17v5.34h6.17a2.63,2.63,0,0,0,2.64-2.64Z"/><path class="cls-5" d="M157.8,259.18V255.4h3.77v3.78Z"/><path class="cls-6" d="M177.31,255.4v3.78H164.88v-22h3.77V255.4Z"/><path class="cls-6" d="M202.61,259.18h-4.16l-1.7-3.78-1.7-3.78-4.46-9.88-4.47,9.88h5.72l1.7,3.78h-9.12l-1.7,3.78h-4.16l9.95-22h4.15Z"/><path class="cls-6" d="M221.05,237.12v22H217l-8.85-15.08v15.08h-3.77v-22h4.09l8.84,15.07V237.12Z"/><path class="cls-6" d="M237,238a11.35,11.35,0,0,1,3.51,2.36,11.18,11.18,0,0,1,2.36,3.51,11,11,0,0,1,0,8.56,11,11,0,0,1-2.36,3.51,11.18,11.18,0,0,1-3.51,2.36,10.67,10.67,0,0,1-4.28.87h-3.9l1.54-3.78h2.36a7.06,7.06,0,0,0,2.77-.55,7.12,7.12,0,0,0,3.92-3.9,7.3,7.3,0,0,0,0-5.56,7.7,7.7,0,0,0-1.56-2.36,7.38,7.38,0,0,0-2.36-1.55,7.06,7.06,0,0,0-2.77-.55h-5.35v18.25h-3.77v-22h9.12A10.84,10.84,0,0,1,237,238Z"/></svg>